<svg width="24" height="24" viewBox="0 0 24 24" fill="white" xmlns="http://www.w3.org/2000/svg">
    <path fill-rule="evenodd" clip-rule="evenodd"
          d="M22.9864 11.5624C22.8981 9.32941 22.1353 7.18135 20.8053 5.42094C19.5171 3.72886 17.7994 2.44146 15.8444 1.70295C13.8894 0.964446 11.7744 0.804069 9.73624 1.23965C7.09445 1.72632 4.72956 3.23279 3.11929 5.45479C1.50902 7.6768 0.773412 10.4486 1.06107 13.2104C1.34872 15.9722 2.6382 18.5181 4.66901 20.3336C6.69982 22.1492 9.32057 23.0993 12.0019 22.9918C13.6686 22.9961 15.3151 22.6141 16.8207 21.874C17.0095 21.7789 17.173 21.6375 17.2971 21.4622C17.4213 21.2869 17.5023 21.083 17.5331 20.868C17.564 20.653 17.5438 20.4335 17.4743 20.2284C17.4048 20.0233 17.2881 19.8388 17.1342 19.6909C16.9373 19.4912 16.6869 19.3575 16.4156 19.3071C16.1443 19.2568 15.8646 19.2922 15.6129 19.4088C14.1031 20.1422 12.4186 20.4007 10.7682 20.1524C8.73057 19.9008 6.86589 18.8432 5.56418 17.201C4.26247 15.5588 3.62456 13.4591 3.78392 11.3412C3.94327 9.22325 4.88752 7.25115 6.41916 5.83739C7.9508 4.42364 9.95118 3.67776 12.0019 3.75575C13.7815 3.74998 15.5165 4.33242 16.9543 5.41819C17.845 6.07586 18.5942 6.91768 19.1545 7.89053C19.8766 9.13026 20.2575 10.5508 20.2559 11.9985C20.2447 12.3686 20.0947 12.7196 19.8379 12.9773C19.5811 13.2349 19.2374 13.379 18.8798 13.379C18.5221 13.379 18.1785 13.2349 17.9217 12.9773C17.6648 12.7196 17.5149 12.3686 17.5037 11.9985C17.4907 10.9213 17.1723 9.87179 16.588 8.98036C16.0037 8.08894 15.1792 7.39496 14.217 6.98459C12.9999 6.43754 11.6355 6.35161 10.3633 6.74187C9.67712 6.97674 9.04425 7.35367 8.50321 7.8497C7.96216 8.34574 7.52424 8.95046 7.21608 9.62722C6.90792 10.304 6.73597 11.0386 6.71068 11.7863C6.68539 12.534 6.8073 13.2792 7.06898 13.9766C7.33066 14.6741 7.72664 15.3091 8.23285 15.8431C8.73906 16.3771 9.34491 16.7989 10.0136 17.0829C10.6822 17.3669 11.3996 17.5071 12.1223 17.495C12.8449 17.4829 13.5576 17.3188 14.217 17.0126C15.0812 16.6496 15.8348 16.0519 16.3981 15.2824C17.1172 15.8261 17.9846 16.1191 18.875 16.1192C18.9661 16.1216 19.0572 16.1173 19.1477 16.1065C20.1005 16.0546 21.0058 15.6594 21.7068 14.9893C22.4078 14.3192 22.8605 13.4166 22.9864 12.4375C22.9864 12.2963 23 12.1481 23 11.9972C23 11.8462 22.9864 11.6993 22.9864 11.5624ZM12.5458 14.694C12.3665 14.7328 12.1836 14.7512 12.0005 14.749C11.6448 14.7608 11.2904 14.6984 10.9585 14.5656C10.6265 14.4329 10.3237 14.2324 10.068 13.9761C9.81238 13.7198 9.60911 13.4129 9.47029 13.0736C9.33147 12.7344 9.25994 12.3698 9.25994 12.0014C9.25994 11.633 9.33147 11.2683 9.47029 10.929C9.60911 10.5898 9.81238 10.2829 10.068 10.0266C10.3237 9.77031 10.6265 9.56981 10.9585 9.43704C11.2904 9.30427 11.6448 9.24195 12.0005 9.25375C12.1836 9.2515 12.3665 9.26995 12.5458 9.30879C13.1605 9.41623 13.7186 9.74561 14.1211 10.2385C14.5236 10.7314 14.7444 11.356 14.7444 12.0014C14.7444 12.6468 14.5236 13.2713 14.1211 13.7642C13.7186 14.2571 13.1605 14.5865 12.5458 14.694Z"/>
</svg>
